# xmcd
#
# Track frame offsets: 
#        150
#        9734
#        20556
#        36766
#        47604
#        61823
#        73103
#        91392
#        103602
#        121466
#        132405
#        144754
#
# Disc length: 2160 seconds
#
# Revision: 6
# Processed by: cddbd v1.5.2PL0 Copyright (c) Steve Scherf et al.
# Submitted via: ExactAudioCopyFreeDBPlugin 1.0
#
DISCID=a1086e0c
DTITLE=Blues Jumpers - Swingin' Holiday
DYEAR=1998
DGENRE=Holiday
TTITLE0=Santa Claus is Coming to Town
TTITLE1=Winter Wonderland
TTITLE2=You're a Mean One, Mister Grinch
TTITLE3=Boogie Woogie Santa Claus
TTITLE4=Let It Snow, Let It Snow, Let It Snow
TTITLE5=Dig That Crazy Santa Claus
TTITLE6=Little Drummer Boy
TTITLE7=Sleighride
TTITLE8=God Rest Ye Merry Gentlemen
TTITLE9=Cool Yule
TTITLE10=Rudolph, the Red-Nosed Reindeer
TTITLE11=A Merry Christmas for Me and You
EXTD=
EXTT0=
EXTT1=
EXTT2=
EXTT3=
EXTT4=
EXTT5=
EXTT6=
EXTT7=
EXTT8=
EXTT9=
EXTT10=
EXTT11=
PLAYORDER=
